<?xml version="1.0" ?><svg height="60px" version="1.1" viewBox="0 0 60 60" width="60px" xmlns="http://www.w3.org/2000/svg" xmlns:xlink="http://www.w3.org/1999/xlink"><title/><desc/><defs><linearGradient id="linearGradient-1" x1="13.6491915%" x2="86.3508085%" y1="16.8383669%" y2="83.1616331%"><stop offset="0%" stop-color="#D3DFF2"/><stop offset="17.173%" stop-color="#D3DFF2"/><stop offset="20%" stop-color="#D3DFF2"/><stop offset="20.016%" stop-color="#DAE2F2"/><stop offset="20.071%" stop-color="#EBEAF2"/><stop offset="20.138%" stop-color="#F6EFF2"/><stop offset="20.232%" stop-color="#FDF2F2"/><stop offset="20.495%" stop-color="#FFF3F2"/><stop offset="25.222%" stop-color="#FFF3F2"/><stop offset="26%" stop-color="#FFF3F2"/><stop offset="26%" stop-color="#D3DFF2"/><stop offset="39.739%" stop-color="#D3DFF2"/><stop offset="42%" stop-color="#D3DFF2"/><stop offset="42.016%" stop-color="#DAE2F2"/><stop offset="42.071%" stop-color="#EBEAF2"/><stop offset="42.138%" stop-color="#F6EFF2"/><stop offset="42.232%" stop-color="#FDF2F2"/><stop offset="42.495%" stop-color="#FFF3F2"/><stop offset="48.939%" stop-color="#FFF3F2"/><stop offset="50%" stop-color="#FFF3F2"/><stop offset="50.003%" stop-color="#F8F0F2"/><stop offset="50.014%" stop-color="#E7E8F2"/><stop offset="50.028%" stop-color="#DCE3F2"/><stop offset="50.047%" stop-color="#D5E0F2"/><stop offset="50.1%" stop-color="#D3DFF2"/><stop offset="70.622%" stop-color="#D3DFF2"/><stop offset="74%" stop-color="#D3DFF2"/><stop offset="74.1%" stop-color="#FFF3F2"/><stop offset="83.459%" stop-color="#FFF3F2"/><stop offset="85%" stop-color="#FFF3F2"/><stop offset="85.1%" stop-color="#D3DFF2"/></linearGradient></defs><g fill="none" fill-rule="evenodd" id="Page-1" stroke="none" stroke-width="1"><g fill-rule="nonzero" id="005---Skip-Forward"><g id="Icons" transform="translate(1.000000, 1.000000)"><path d="M58,29 C57.9846973,36.6755537 54.9206045,44.0305897 49.4819168,49.4467724 C44.0432292,54.8629552 36.6755511,57.896524 29,57.88 C28.33,57.88 27.66,57.86 27,57.8 C11.8148168,56.8192902 1.57651669e-14,44.216819 1.39888101e-14,29 C1.22124533e-14,13.783181 11.8148168,1.18070975 27,0.2 C27.66,0.14 28.33,0.12 29,0.12 C36.6755511,0.103475955 44.0432292,3.13704484 49.4819168,8.55322756 C54.9206045,13.9694103 57.9846973,21.3244463 58,29 Z" fill="#6D9AFA" id="Shape"/><ellipse cx="27" cy="29" fill="#CCDBF2" id="Oval" rx="27" ry="28.79999"/><path d="M55,29 C54.951764,43.3199666 43.3200365,54.8980092 29,54.88 C28.16,54.88 27.33,54.84 26.5,54.76 C13.1870891,53.5358138 3.00007599,42.3690773 3.00007599,29 C3.00007599,15.6309227 13.1870891,4.46418623 26.5,3.24 C27.33,3.16 28.16,3.12 29,3.12 C43.3200433,3.10197426 54.9517805,14.6800265 55,29 Z" fill="#95B4F6" id="Shape"/><ellipse cx="26.5" cy="29" fill="url(#linearGradient-1)" id="Oval" rx="23.5" ry="25.76001"/><path d="M26,26.05 L26,31.95 L18.09,37.43 C17.8750482,37.5713089 17.600112,37.5840412 17.3730202,37.4632033 C17.1459284,37.3423655 17.0028885,37.1072239 17,36.85 L17,21.15 C16.9990824,20.891095 17.141549,20.6529519 17.370112,20.5313312 C17.598675,20.4097105 17.8757803,20.4245952 18.09,20.57 L26,26.05 Z" fill="#CCDBF2" id="Shape"/><path d="M37,27.44 L37,30.56 L27.09,37.43 C26.8750482,37.5713089 26.600112,37.5840412 26.3730202,37.4632033 C26.1459284,37.3423655 26.0028885,37.1072239 26,36.85 L26,21.15 C25.9990824,20.891095 26.141549,20.6529519 26.370112,20.5313312 C26.598675,20.4097105 26.8757803,20.4245952 27.09,20.57 L37,27.44 Z" fill="#CCDBF2" id="Shape"/><path d="M23,27.5 L23,33.4 L17.25,37.38 C17.0902778,37.2506433 16.9982417,37.0555267 17,36.85 L16.9999753,23.34 L23,27.5 Z" fill="#DEE2F0" id="Shape"/><path d="M34,28.89 L34,32.01 L26.25,37.38 C26.0902778,37.2506433 25.9982417,37.0555267 26,36.85 L25.9999753,23.34 L34,28.89 Z" fill="#DEE2F0" id="Shape"/><rect fill="#CCDBF2" height="16" id="Rectangle-path" rx="1" width="4" x="37" y="21"/><path d="M39,22 L39,36 C39,36.5522847 38.5522847,37 38,37 C37.4477153,37 37,36.5522847 37,36 L37,22 C37,21.4477153 37.4477153,21 38,21 C38.5522847,21 39,21.4477153 39,22 Z" fill="#DEE2F0" id="Shape"/></g><g fill="#FFFFFF" id="Layer_13" transform="translate(2.000000, 1.000000)"><path d="M30.45,57.87 C19.7910404,58.3836418 9.71612985,52.98292 4.24340019,43.8217804 C-1.22932948,34.6606408 -1.20953185,23.2294893 4.29489728,14.0873611 C9.7993264,4.94523284 19.8928835,-0.420559164 30.55,0.13 C15.145871,0.847513201 3.01788694,13.53155 2.99117961,28.9523574 C2.96447229,44.3731649 15.0484487,57.0991344 30.45,57.87 Z" id="Shape"/></g><g id="Outline"><path d="M16.0625,5.85954 C6.29897817,11.5307177 0.867451531,22.4858264 2.2641,33.6902 C4.13261987,47.7767897 16.2972674,58.2037634 30.50391,57.89606 C37.3608842,57.7107382 43.9194384,55.0515519 48.9693,50.40921 C56.6726139,43.3491532 59.7637298,32.5642258 56.9697725,22.4954995 C54.1758152,12.4267731 45.9692316,4.77682917 35.72937,2.6958 C29.0070992,1.32575722 22.0159601,2.4503971 16.0625,5.85954 L15.0625,4.12754 C21.4401455,0.474040843 28.9302022,-0.731349087 36.13208,0.73677 C47.0891847,2.99279027 55.8621646,11.1912007 58.8540793,21.9706356 C61.845994,32.7500706 58.5535746,44.2973249 50.32672,51.878 C44.9178446,56.8519689 37.8913323,59.6999389 30.54572,59.89559 C19.3492616,60.167393 8.9464666,54.1363202 3.61909003,44.2847408 C-1.70828654,34.4331614 -1.05990617,22.4260142 5.29736,13.2054 C7.83729048,9.49129705 11.1732417,6.39011623 15.0625,4.12749 L16.0625,5.85954 Z" fill="#FFFFFF" id="Shape"/><path d="M36.13208,0.73676 C28.9302061,-0.731382101 21.4401447,0.473997925 15.0625,4.1275 L13.32526,5.24915 L12.45941,5.8139 L11.65076,6.45898 C11.4373854,6.62180782 11.2990886,6.86414131 11.2674323,7.13067364 C11.2357761,7.39720597 11.313462,7.66519188 11.48276,7.87347 C11.8281084,8.29304826 12.4426998,8.3660806 12.87676,8.03912 L13.6303,7.4353 L14.44042,6.9093 L16.0625,5.85956 C22.0159544,2.45040147 29.0070969,1.32575393 35.72937,2.6958 C45.9520337,4.80080655 54.1367306,12.4500995 56.9274694,22.5072205 C59.7182081,32.5643416 56.6455173,43.3374339 48.9693,50.40918 C43.9194463,55.0515382 37.3608895,57.7107362 30.50391,57.89606 C20.0565751,58.1522179 10.3488086,52.5255282 5.37803968,43.3329289 C0.407270798,34.1403297 1.01401525,22.9362131 6.94843,14.33417 L7.49298,13.53705 C7.7979463,13.0954139 7.71301483,12.4936685 7.29773,12.15369 C7.08707063,11.9833131 6.8151928,11.9079179 6.54687271,11.9454677 C6.27855262,11.9830174 6.03781618,12.1301499 5.88202,12.35181 L5.29736,13.20538 C-1.03700334,22.4302272 -1.67329452,34.4250335 3.64956026,44.2682637 C8.97241503,54.1114939 19.3582578,60.1459379 30.54572,59.89563 C37.8913398,59.6999697 44.9178544,56.851981 50.32672,51.87799 C58.5806943,44.3090149 61.8915517,32.749919 58.8964148,21.9588751 C55.9012779,11.1678311 47.1063945,2.96877631 36.13208,0.73676 Z" fill="#3576FF" id="Shape"/><path d="M8.5827,10.62109 C8.9882097,10.97915 9.5991306,10.9714442 9.99548,10.60327 C10.1759952,10.4198835 10.2789839,10.1740427 10.28308,9.91675 L10.26257,9.72717 C10.2503813,9.66084378 10.2296837,9.59636791 10.20099,9.53534 C10.1819242,9.47455471 10.1540838,9.4168795 10.11835,9.36414 C10.0806939,9.30866448 10.039319,9.25580654 9.99451,9.20593 C9.80893121,9.01624201 9.55650198,8.90669007 9.2912,8.9007 C8.73332269,8.91936219 8.2821242,9.36110311 8.25165,9.91846 C8.25921258,10.0521909 8.29387043,10.1829905 8.35352,10.30292 C8.40832935,10.4229679 8.48619839,10.5310733 8.5827,10.62109 Z" fill="#3576FF" id="Shape"/><path d="M30,55.875 C44.2741376,55.8062083 55.7963276,44.1910968 55.7504665,29.9168671 C55.7046053,15.6426374 44.1080185,4.1018034 29.8337335,4.12473387 C15.5594486,4.14766433 4.00000027,15.7256966 4,30 C4.05076111,44.3181062 15.6818155,55.893242 30,55.875 Z M30,6.125 C43.1695757,6.19376862 53.796362,16.9134441 53.7505153,30.0831195 C53.7046686,43.2527949 43.0035054,53.898223 29.8337702,53.8752983 C16.6640349,53.8523737 5.99999752,43.1697552 6,30 C6.04967695,16.7860145 16.7859352,6.10567421 30,6.125 Z" fill="#3576FF" id="Shape"/><path d="M17.91553,39.35938 C18.4711561,39.6522161 19.1437044,39.610779 19.65918,39.25195 L26,34.85919 L26,37.8501 C26.0011139,38.7891062 26.7611971,39.5504948 27.7002,39.55322 C28.0432907,39.5531733 28.3781342,39.4480337 28.65967,39.25195 L37,33.47009 L37,37 C37.0011025,38.1041125 37.8958875,38.9988975 39,39 L41,39 C42.1041125,38.9988975 42.9988975,38.1041125 43,37 L43,23 C42.9988975,21.8958875 42.1041125,21.0011025 41,21 L39,21 C37.8958875,21.0011025 37.0011025,21.8958875 37,23 L37,26.53 L28.66064,20.749 C28.1451056,20.3890003 27.4716499,20.3471715 26.91553,20.64061 C26.3522717,20.933073 25.9991314,21.5152397 26,22.1499 L26,25.14081 L19.66064,20.749 C19.1451056,20.3890003 18.4716499,20.3471715 17.91553,20.64061 C17.3522717,20.933073 16.9991314,21.5152397 17,22.1499 L17,37.8501 C16.9991352,38.4847567 17.3522749,39.0669187 17.91553,39.35938 Z M39,23 L41,23 L41.00146,37 L39,37 L39,23 Z M28,22.72412 L37,28.9635 L37,31.0365 L28,37.27588 L28,22.72412 Z M19,22.72412 L26,27.57324 L26,32.42676 L19,37.27588 L19,22.72412 Z" fill="#3576FF" id="Shape"/></g></g></g></svg>