<?xml version="1.0" ?><svg height="60px" version="1.1" viewBox="0 0 60 60" width="60px" xmlns="http://www.w3.org/2000/svg" xmlns:xlink="http://www.w3.org/1999/xlink"><title/><desc/><defs><linearGradient id="linearGradient-1" x1="13.6491915%" x2="86.3508085%" y1="16.8383863%" y2="83.1616331%"><stop offset="0%" stop-color="#D3DFF2"/><stop offset="17.173%" stop-color="#D3DFF2"/><stop offset="20%" stop-color="#D3DFF2"/><stop offset="20.016%" stop-color="#DAE2F2"/><stop offset="20.071%" stop-color="#EBEAF2"/><stop offset="20.138%" stop-color="#F6EFF2"/><stop offset="20.232%" stop-color="#FDF2F2"/><stop offset="20.495%" stop-color="#FFF3F2"/><stop offset="25.222%" stop-color="#FFF3F2"/><stop offset="26%" stop-color="#FFF3F2"/><stop offset="26%" stop-color="#D3DFF2"/><stop offset="39.739%" stop-color="#D3DFF2"/><stop offset="42%" stop-color="#D3DFF2"/><stop offset="42.016%" stop-color="#DAE2F2"/><stop offset="42.071%" stop-color="#EBEAF2"/><stop offset="42.138%" stop-color="#F6EFF2"/><stop offset="42.232%" stop-color="#FDF2F2"/><stop offset="42.495%" stop-color="#FFF3F2"/><stop offset="48.939%" stop-color="#FFF3F2"/><stop offset="50%" stop-color="#FFF3F2"/><stop offset="50.003%" stop-color="#F8F0F2"/><stop offset="50.014%" stop-color="#E7E8F2"/><stop offset="50.028%" stop-color="#DCE3F2"/><stop offset="50.047%" stop-color="#D5E0F2"/><stop offset="50.1%" stop-color="#D3DFF2"/><stop offset="70.622%" stop-color="#D3DFF2"/><stop offset="74%" stop-color="#D3DFF2"/><stop offset="74.1%" stop-color="#FFF3F2"/><stop offset="83.459%" stop-color="#FFF3F2"/><stop offset="85%" stop-color="#FFF3F2"/><stop offset="85.1%" stop-color="#D3DFF2"/></linearGradient></defs><g fill="none" fill-rule="evenodd" id="Page-1" stroke="none" stroke-width="1"><g fill-rule="nonzero" id="019---Reduce"><g id="Icons" transform="translate(1.000000, 1.000000)"><path d="M58,29.005 C57.9846946,36.6805529 54.920601,44.0355874 49.4819139,49.4517695 C44.0432269,54.8679516 36.6755503,57.9015214 29,57.885 C28.33,57.885 27.66,57.865 27,57.805 C11.8148168,56.8242902 9.32587341e-15,44.221819 7.54951657e-15,29.005 C5.77315973e-15,13.788181 11.8148168,1.18570975 27,0.205 C27.66,0.145 28.33,0.125 29,0.125 C36.6755511,0.108475955 44.0432292,3.14204484 49.4819168,8.55822756 C54.9206045,13.9744103 57.9846973,21.3294463 58,29.005 Z" fill="#6D9AFA" id="Shape"/><ellipse cx="27" cy="29.005" fill="#CCDBF2" id="Oval" rx="27" ry="28.79999"/><path d="M55,29.005 C54.9517585,43.3249643 43.3200343,54.9030037 29,54.885 C28.16,54.885 27.33,54.845 26.5,54.765 C13.1870891,53.5408138 3.00007599,42.3740773 3.00007599,29.005 C3.00007599,15.6359227 13.1870891,4.46918623 26.5,3.245 C27.33,3.165 28.16,3.125 29,3.125 C43.3200433,3.10697426 54.9517805,14.6850265 55,29.005 Z" fill="#95B4F6" id="Shape"/><ellipse cx="26.5" cy="29.005" fill="url(#linearGradient-1)" id="Oval" rx="23.5" ry="25.76001"/></g><g fill="#FFFFFF" id="Layer_13" transform="translate(2.000000, 1.000000)"><path d="M30.45,57.87 C19.7910404,58.3836418 9.71612985,52.98292 4.24340019,43.8217804 C-1.22932948,34.6606408 -1.20953185,23.2294893 4.29489728,14.0873611 C9.7993264,4.94523284 19.8928835,-0.420559164 30.55,0.13 C15.145871,0.847513201 3.01788694,13.53155 2.99117961,28.9523574 C2.96447229,44.3731649 15.0484487,57.0991344 30.45,57.87 Z" id="Shape"/></g><g id="Outline"><path d="M16.0625,5.85953 C6.29891664,11.5306732 0.867341808,22.4858115 2.264,33.69022 C4.13258901,47.7768102 16.2972576,58.2037564 30.50391,57.89606 C37.3608989,57.7107229 43.9194668,55.0515397 48.96936,50.40921 C56.672623,43.3491209 59.7636954,32.5642045 56.9697285,22.4954971 C54.1757617,12.4267898 45.9692003,4.77685513 35.72936,2.6958 C29.0070937,1.32575114 22.0159567,2.45038769 16.0625,5.85953 L15.0625,4.12753 C21.4401473,0.474036114 28.9302021,-0.731353497 36.13208,0.73676 C47.0891979,2.99276881 55.8621889,11.1911888 58.8540941,21.9706373 C61.8459994,32.7500859 58.553549,44.2973467 50.32666,51.878 C44.9178283,56.8519649 37.891357,59.6999427 30.54578,59.89561 C19.3493065,60.1674247 8.94649181,54.136352 3.61910168,44.2847625 C-1.70828845,34.4331729 -1.05991252,22.4260084 5.29736,13.20538 C7.83729697,9.49129059 11.1732473,6.39012086 15.0625,4.1275 L16.0625,5.85953 Z" fill="#FFFFFF" id="Shape"/><path d="M36.13208,0.73676 C28.930206,-0.731377442 21.4401462,0.474002318 15.0625,4.1275 L13.3252,5.24908 L12.45935,5.8139 L11.65076,6.45898 C11.4373743,6.62179609 11.2990616,6.86412262 11.2673885,7.13065473 C11.2357153,7.39718683 11.3133845,7.66517942 11.48267,7.87347 C11.8280725,8.29307406 12.44272,8.36610468 12.87683,8.03912 L13.63037,7.4353 L14.44043,6.9093 L16.0625,5.8595 C22.015968,2.45037868 29.0071038,1.32575355 35.72937,2.6958 C45.9519986,4.80085166 54.1366559,12.4501348 56.9274016,22.5072277 C59.7181473,32.5643205 56.6455148,43.3373924 48.96937,50.40918 C43.9194724,55.0515066 37.3609094,57.7106985 30.50392,57.89606 C20.0565739,58.1522414 10.3487852,52.5255625 5.37799767,43.3329599 C0.40721012,34.1403574 1.01394389,22.9362265 6.94836,14.33417 L7.49304,13.53705 C7.79795737,13.0953908 7.71300314,12.493669 7.29773,12.15369 C7.08705957,11.9833133 6.8151733,11.9079188 6.5468446,11.9454682 C6.2785159,11.9830175 6.03776945,12.1301489 5.88196,12.35181 L5.29736,13.20538 C-1.03697866,22.4302419 -1.67324827,34.4250451 3.64961542,44.2682684 C8.97247912,54.1114917 19.3583195,60.1459314 30.54578,59.89563 C37.891359,59.6999545 44.9178298,56.8519698 50.32666,51.878 C58.5806615,44.3090437 61.891545,32.7499444 58.8964184,21.95889 C55.9012919,11.1678355 47.106403,2.9687712 36.13208,0.73676 Z" fill="#3576FF" id="Shape"/><path d="M9.29224,10.88452 C9.55338337,10.8810385 9.80395514,10.7808262 9.99548,10.60327 C10.1759952,10.4198835 10.2789839,10.1740427 10.28308,9.91675 L10.26257,9.72711 C10.2503807,9.66079559 10.229662,9.59633712 10.20093,9.53534 C10.1818919,9.47456534 10.1540927,9.41689183 10.11841,9.36414 C10.0806962,9.3086907 10.0393031,9.25583524 9.99451,9.20593 C9.80896564,9.01622777 9.55654849,8.90667173 9.29126,8.9007 C8.73338269,8.91936219 8.2821842,9.36110311 8.25171,9.91846 C8.25922232,10.0521917 8.29386136,10.1829973 8.35352,10.30292 C8.40829452,10.4229861 8.48619171,10.5310818 8.58276,10.62103 C8.77861912,10.7934287 9.03132911,10.8872813 9.29224,10.88452 Z" fill="#3576FF" id="Shape"/><path d="M30,55.875 C44.2741376,55.8062083 55.7963276,44.1910968 55.7504665,29.9168671 C55.7046053,15.6426374 44.1080185,4.1018034 29.8337335,4.12473387 C15.5594486,4.14766433 4.00000027,15.7256966 4,30 C4.05059081,44.3181773 15.6817451,55.8934126 30,55.875 Z M30,6.125 C43.1695757,6.19376862 53.796362,16.9134441 53.7505153,30.0831195 C53.7046686,43.2527949 43.0035054,53.898223 29.8337702,53.8752983 C16.6640349,53.8523737 5.99999752,43.1697552 6,30 C6.04967695,16.7860145 16.7859352,6.10567421 30,6.125 Z" fill="#3576FF" id="Shape"/><path d="M20,26 L25,26 C25.2652376,26.000069 25.5196316,25.8947343 25.7071829,25.7071829 C25.8947343,25.5196316 26.000069,25.2652376 26,25 L26,20 C26,19.4477152 25.5522847,19 25,19 C24.4477152,19 24,19.4477152 24,20 L24,24 L20,24 C19.4477152,24 19,24.4477152 19,25 C19,25.5522847 19.4477152,26 20,26 Z" fill="#3576FF" id="Shape"/><path d="M20,36 L24,36 L24,40 C24,40.5522847 24.4477152,41 25,41 C25.5522847,41 26,40.5522847 26,40 L26,35 C26.000069,34.7347624 25.8947343,34.4803684 25.7071829,34.292817 C25.5196316,34.1052657 25.2652376,33.999931 25,34 L20,34 C19.4477152,34 19,34.4477152 19,35 C19,35.5522847 19.4477152,36 20,36 Z" fill="#3576FF" id="Shape"/><path d="M35,40.9999999 C35.2652376,41.0000689 35.5196316,40.8947342 35.707183,40.7071829 C35.8947343,40.5196316 36.000069,40.2652376 36,39.9999999 L36,36 L40,36 C40.5522847,36 41,35.5522847 41,35 C41,34.4477152 40.5522847,34 40,34 L35,34 C34.7347624,33.999931 34.4803684,34.1052657 34.292817,34.292817 C34.1052657,34.4803684 33.999931,34.7347624 34,35 L34,39.9999999 C33.999931,40.2652376 34.1052657,40.5196316 34.292817,40.7071829 C34.4803684,40.8947342 34.7347624,41.0000689 35,40.9999999 Z" fill="#3576FF" id="Shape"/><path d="M35,26 L40,26 C40.5522847,26 41,25.5522847 41,25 C41,24.4477152 40.5522847,24 40,24 L36,24 L36,20 C36,19.4477152 35.5522847,19 35,19 C34.4477152,19 34,19.4477152 34,20 L34,25 C33.999931,25.2652376 34.1052657,25.5196316 34.292817,25.7071829 C34.4803684,25.8947343 34.7347624,26.000069 35,26 Z" fill="#3576FF" id="Shape"/></g></g></g></svg>