<?xml version="1.0" ?><svg height="60px" version="1.1" viewBox="0 0 60 60" width="60px" xmlns="http://www.w3.org/2000/svg" xmlns:xlink="http://www.w3.org/1999/xlink"><title/><desc/><defs><linearGradient id="linearGradient-1" x1="13.6491915%" x2="86.3508085%" y1="16.8383863%" y2="83.1616331%"><stop offset="0%" stop-color="#D3DFF2"/><stop offset="17.173%" stop-color="#D3DFF2"/><stop offset="20%" stop-color="#D3DFF2"/><stop offset="20.016%" stop-color="#DAE2F2"/><stop offset="20.071%" stop-color="#EBEAF2"/><stop offset="20.138%" stop-color="#F6EFF2"/><stop offset="20.232%" stop-color="#FDF2F2"/><stop offset="20.495%" stop-color="#FFF3F2"/><stop offset="25.222%" stop-color="#FFF3F2"/><stop offset="26%" stop-color="#FFF3F2"/><stop offset="26%" stop-color="#D3DFF2"/><stop offset="39.739%" stop-color="#D3DFF2"/><stop offset="42%" stop-color="#D3DFF2"/><stop offset="42.016%" stop-color="#DAE2F2"/><stop offset="42.071%" stop-color="#EBEAF2"/><stop offset="42.138%" stop-color="#F6EFF2"/><stop offset="42.232%" stop-color="#FDF2F2"/><stop offset="42.495%" stop-color="#FFF3F2"/><stop offset="48.939%" stop-color="#FFF3F2"/><stop offset="50%" stop-color="#FFF3F2"/><stop offset="50.003%" stop-color="#F8F0F2"/><stop offset="50.014%" stop-color="#E7E8F2"/><stop offset="50.028%" stop-color="#DCE3F2"/><stop offset="50.047%" stop-color="#D5E0F2"/><stop offset="50.1%" stop-color="#D3DFF2"/><stop offset="70.622%" stop-color="#D3DFF2"/><stop offset="74%" stop-color="#D3DFF2"/><stop offset="74.1%" stop-color="#FFF3F2"/><stop offset="83.459%" stop-color="#FFF3F2"/><stop offset="85%" stop-color="#FFF3F2"/><stop offset="85.1%" stop-color="#D3DFF2"/></linearGradient></defs><g fill="none" fill-rule="evenodd" id="Page-1" stroke="none" stroke-width="1"><g fill-rule="nonzero" id="012---Settings"><g id="Icons" transform="translate(1.000000, 1.000000)"><path d="M58,29.005 C57.9846946,36.6805529 54.920601,44.0355874 49.4819139,49.4517695 C44.0432269,54.8679516 36.6755503,57.9015214 29,57.885 C28.33,57.885 27.66,57.865 27,57.805 C11.8148168,56.8242902 9.32587341e-15,44.221819 7.54951657e-15,29.005 C5.77315973e-15,13.788181 11.8148168,1.18570975 27,0.205 C27.66,0.145 28.33,0.125 29,0.125 C36.6755511,0.108475955 44.0432292,3.14204484 49.4819168,8.55822756 C54.9206045,13.9744103 57.9846973,21.3294463 58,29.005 Z" fill="#6D9AFA" id="Shape"/><ellipse cx="27" cy="29.005" fill="#CCDBF2" id="Oval" rx="27" ry="28.79999"/><path d="M55,29.005 C54.9517585,43.3249643 43.3200343,54.9030037 29,54.885 C28.16,54.885 27.33,54.845 26.5,54.765 C13.1870891,53.5408138 3.00007599,42.3740773 3.00007599,29.005 C3.00007599,15.6359227 13.1870891,4.46918623 26.5,3.245 C27.33,3.165 28.16,3.125 29,3.125 C43.3200433,3.10697426 54.9517805,14.6850265 55,29.005 Z" fill="#95B4F6" id="Shape"/><ellipse cx="26.5" cy="29.005" fill="url(#linearGradient-1)" id="Oval" rx="23.5" ry="25.76001"/><path d="M24,24 C23.99201,25.1012429 23.1012429,25.99201 22,26 L16,26 C14.8967777,25.9967543 14.0032457,25.1032223 14,24 C14.0079309,22.8987323 14.8987323,22.0079309 16,22 L22,22 C23.1032314,22.0032238 23.9967762,22.8967686 24,24 Z" fill="#CCDBF2" id="Shape"/><path d="M44,24 C43.99201,25.1012429 43.1012429,25.99201 42,26 L36,26 C34.8967777,25.9967543 34.0032457,25.1032223 34,24 C34.0079309,22.8987323 34.8987323,22.0079309 36,22 L42,22 C43.1032314,22.0032238 43.9967762,22.8967686 44,24 Z" fill="#CCDBF2" id="Shape"/><path d="M34,34 C33.99201,35.1012429 33.1012429,35.99201 32,36 L26,36 C24.8967777,35.9967543 24.0032457,35.1032223 24,34 C24.0079309,32.8987323 24.8987323,32.0079309 26,32 L32,32 C33.1032314,32.0032238 33.9967762,32.8967686 34,34 Z" fill="#CCDBF2" id="Shape"/><path d="M21,24 C20.99201,25.1012429 20.1012429,25.99201 19,26 L16,26 C14.8967777,25.9967543 14.0032457,25.1032223 14,24 C14.0079309,22.8987323 14.8987323,22.0079309 16,22 L19,22 C20.1032314,22.0032238 20.9967762,22.8967686 21,24 Z" fill="#DEE2F0" id="Shape"/><path d="M41,24 C40.99201,25.1012429 40.1012429,25.99201 39,26 L36,26 C34.8967777,25.9967543 34.0032457,25.1032223 34,24 C34.0079309,22.8987323 34.8987323,22.0079309 36,22 L39,22 C40.1032314,22.0032238 40.9967762,22.8967686 41,24 Z" fill="#DEE2F0" id="Shape"/><path d="M31,34 C30.99201,35.1012429 30.1012429,35.99201 29,36 L26,36 C24.8967777,35.9967543 24.0032457,35.1032223 24,34 C24.0079309,32.8987323 24.8987323,32.0079309 26,32 L29,32 C30.1032314,32.0032238 30.9967762,32.8967686 31,34 Z" fill="#DEE2F0" id="Shape"/></g><g fill="#FFFFFF" id="Layer_13" transform="translate(2.000000, 1.000000)"><path d="M30.45,57.87 C19.7910404,58.3836418 9.71612985,52.98292 4.24340019,43.8217804 C-1.22932948,34.6606408 -1.20953185,23.2294893 4.29489728,14.0873611 C9.7993264,4.94523284 19.8928835,-0.420559164 30.55,0.13 C15.145871,0.847513201 3.01788694,13.53155 2.99117961,28.9523574 C2.96447229,44.3731649 15.0484487,57.0991344 30.45,57.87 Z" id="Shape"/></g><g id="Outline"><path d="M16.0625,5.85953 C6.29895569,11.5307039 0.867414662,22.4858296 2.26407,33.69022 C4.13260345,47.7767994 16.2972457,58.20376 30.50388,57.89606 C37.36086,57.7107229 43.9194184,55.0515392 48.9693,50.40921 C56.6725991,43.3491468 59.7637049,32.5642258 56.9697493,22.4955059 C54.1757938,12.4267859 45.9692221,4.77684232 35.72937,2.6958 C29.0071003,1.32575607 22.015962,2.45039227 16.0625,5.85953 L15.0625,4.12753 C21.4401458,0.474031721 28.9302022,-0.731358155 36.13208,0.73676 C47.0891845,2.99278422 55.8621628,11.1911964 58.8540771,21.9706321 C61.8459914,32.7500677 58.5535731,44.2973225 50.32672,51.878 C44.9178338,56.8519544 37.8913296,59.6999282 30.54572,59.89561 C19.3492439,60.1674346 8.94642544,54.1363555 3.61904865,44.2847555 C-1.70832814,34.4331555 -1.05991972,22.4259862 5.29739,13.20538 C7.83730046,9.4912785 11.1732441,6.39010546 15.0625,4.1275 L16.0625,5.85953 Z" fill="#FFFFFF" id="Shape"/><path d="M36.13208,0.73676 C28.930206,-0.731377442 21.4401462,0.474002318 15.0625,4.1275 L13.32526,5.24908 L12.45941,5.8139 L11.65082,6.45898 C11.4374223,6.62178765 11.2991005,6.86411571 11.2674268,7.13065215 C11.2357531,7.39718859 11.3134309,7.66518483 11.48273,7.87347 C11.8280784,8.29304826 12.4426698,8.3660806 12.87673,8.03912 L13.63027,7.4353 L14.44045,6.9093 L16.06245,5.8595 C22.0159354,2.45037612 29.0070876,1.3257512 35.72937,2.6958 C45.9520337,4.80080655 54.1367306,12.4500995 56.9274694,22.5072205 C59.7182081,32.5643416 56.6455173,43.3374339 48.9693,50.40918 C43.9194306,55.0515134 37.3608835,57.7107075 30.50391,57.89606 C20.0565751,58.1522179 10.3488086,52.5255282 5.37803968,43.3329289 C0.407270798,34.1403297 1.01401525,22.9362131 6.94843,14.33417 L7.49298,13.53705 C7.7979463,13.0954139 7.71301483,12.4936685 7.29773,12.15369 C7.08707063,11.9833131 6.8151928,11.9079179 6.54687271,11.9454677 C6.27855262,11.9830174 6.03781618,12.1301499 5.88202,12.35181 L5.29742,13.20538 C-1.03696802,22.4302124 -1.67328076,34.4250218 3.6495651,44.268259 C8.97241095,54.1114961 19.3582561,60.1459444 30.54572,59.89563 C37.8913336,59.69994 44.9178382,56.8519553 50.32672,51.87799 C58.5806943,44.3090149 61.8915517,32.749919 58.8964148,21.9588751 C55.9012779,11.1678311 47.1063945,2.96877631 36.13208,0.73676 Z" fill="#3576FF" id="Shape"/><path d="M9.2923,10.88452 C9.55342411,10.8810313 9.80397457,10.780819 9.99548,10.60327 C10.1759952,10.4198835 10.2789839,10.1740427 10.28308,9.91675 L10.26257,9.72711 C10.2503725,9.66080525 10.2296751,9.59635034 10.20099,9.53534 C10.1819365,9.47454985 10.1540952,9.41687291 10.11835,9.36414 C10.0806939,9.30866448 10.039319,9.25580654 9.99451,9.20593 C9.80895582,9.01620626 9.55651128,8.90664768 9.2912,8.9007 C8.73332269,8.91936219 8.2821242,9.36110311 8.25165,9.91846 C8.25921258,10.0521909 8.29387043,10.1829905 8.35352,10.30292 C8.40831508,10.4229587 8.48618653,10.531047 8.5827,10.62103 C8.77861024,10.7934226 9.03135466,10.8872722 9.2923,10.88452 Z" fill="#3576FF" id="Shape"/><path d="M30,55.875 C44.2741376,55.8062083 55.7963276,44.1910968 55.7504665,29.9168671 C55.7046053,15.6426374 44.1080185,4.1018034 29.8337335,4.12473387 C15.5594486,4.14766433 4.00000027,15.7256966 4,30 C4.05076111,44.3181062 15.6818155,55.893242 30,55.875 Z M30,6.125 C43.1695757,6.19376862 53.796362,16.9134441 53.7505153,30.0831195 C53.7046686,43.2527949 43.0035054,53.898223 29.8337702,53.8752983 C16.6640349,53.8523737 5.99999752,43.1697552 6,30 C6.04967695,16.7860145 16.7859352,6.10567421 30,6.125 Z" fill="#3576FF" id="Shape"/><path d="M17,28 L19.0000001,28 L19.0000001,43 C19.0000001,43.5522847 19.4477153,44 20.0000001,44 C20.5522848,44 21.0000001,43.5522847 21.0000001,43 L21.0000001,28 L23.0000001,28 C24.6568544,28 26.0000001,26.6568542 26.0000001,25 C26.0000001,23.3431458 24.6568544,22 23.0000001,22 L21.0000001,22 L21.0000001,17 C21.0000001,16.4477153 20.5522848,16 20.0000001,16 C19.4477153,16 19.0000001,16.4477153 19.0000001,17 L19.0000001,22 L17,22 C15.3431458,22 14.0000001,23.3431458 14.0000001,25 C14.0000001,26.6568542 15.3431458,28 17,28 Z M17,24 L23,24 C23.5522847,24 24,24.4477153 24,25 C24,25.5522847 23.5522847,26 23,26 L17,26 C16.4477153,26 16,25.5522847 16,25 C16,24.4477153 16.4477153,24 17,24 Z" fill="#3576FF" id="Shape"/><path d="M37,28 L39.0000001,28 L39.0000001,43 C39.0000001,43.5522847 39.4477153,44 40.0000001,44 C40.5522848,44 41.0000001,43.5522847 41.0000001,43 L41.0000001,28 L43.0000001,28 C44.6568544,28 46.0000001,26.6568542 46.0000001,25 C46.0000001,23.3431458 44.6568544,22 43.0000001,22 L41.0000001,22 L41.0000001,17 C41.0000001,16.4477153 40.5522848,16 40.0000001,16 C39.4477153,16 39.0000001,16.4477153 39.0000001,17 L39.0000001,22 L37,22 C35.3431458,22 34.0000001,23.3431458 34.0000001,25 C34.0000001,26.6568542 35.3431458,28 37,28 Z M37,24 L43,24 C43.5522847,24 44,24.4477153 44,25 C44,25.5522847 43.5522847,26 43,26 L37,26 C36.4477153,26 36,25.5522847 36,25 C36,24.4477153 36.4477153,24 37,24 Z" fill="#3576FF" id="Shape"/><path d="M24,35 C24.0018077,36.6561049 25.3438951,37.9981923 27,38 L29,38 L29,43 C29,43.5522847 29.4477153,44 30,44 C30.5522847,44 31,43.5522847 31,43 L31,38 L33,38 C34.6568542,38 36,36.6568542 36,35 C36,33.3431458 34.6568542,32 33,32 L31,32 L31,17 C31,16.4477153 30.5522847,16 30,16 C29.4477153,16 29,16.4477153 29,17 L29,32 L27,32 C25.3438951,32.0018077 24.0018077,33.3438951 24,35 Z M34,35 C33.9992838,35.5519878 33.5519878,35.9992838 33,36 L27,36 C26.4477153,36 26,35.5522847 26,35 C26,34.4477153 26.4477153,34 27,34 L33,34 C33.5519878,34.0007162 33.9992838,34.4480122 34,35 Z" fill="#3576FF" id="Shape"/></g></g></g></svg>