<?xml version="1.0" ?><svg height="60px" version="1.1" viewBox="0 0 60 60" width="60px" xmlns="http://www.w3.org/2000/svg" xmlns:xlink="http://www.w3.org/1999/xlink"><title/><desc/><defs><linearGradient id="linearGradient-1" x1="13.6491915%" x2="86.3508085%" y1="16.8383863%" y2="83.1616331%"><stop offset="0%" stop-color="#D3DFF2"/><stop offset="17.173%" stop-color="#D3DFF2"/><stop offset="20%" stop-color="#D3DFF2"/><stop offset="20.016%" stop-color="#DAE2F2"/><stop offset="20.071%" stop-color="#EBEAF2"/><stop offset="20.138%" stop-color="#F6EFF2"/><stop offset="20.232%" stop-color="#FDF2F2"/><stop offset="20.495%" stop-color="#FFF3F2"/><stop offset="25.222%" stop-color="#FFF3F2"/><stop offset="26%" stop-color="#FFF3F2"/><stop offset="26%" stop-color="#D3DFF2"/><stop offset="39.739%" stop-color="#D3DFF2"/><stop offset="42%" stop-color="#D3DFF2"/><stop offset="42.016%" stop-color="#DAE2F2"/><stop offset="42.071%" stop-color="#EBEAF2"/><stop offset="42.138%" stop-color="#F6EFF2"/><stop offset="42.232%" stop-color="#FDF2F2"/><stop offset="42.495%" stop-color="#FFF3F2"/><stop offset="48.939%" stop-color="#FFF3F2"/><stop offset="50%" stop-color="#FFF3F2"/><stop offset="50.003%" stop-color="#F8F0F2"/><stop offset="50.014%" stop-color="#E7E8F2"/><stop offset="50.028%" stop-color="#DCE3F2"/><stop offset="50.047%" stop-color="#D5E0F2"/><stop offset="50.1%" stop-color="#D3DFF2"/><stop offset="70.622%" stop-color="#D3DFF2"/><stop offset="74%" stop-color="#D3DFF2"/><stop offset="74.1%" stop-color="#FFF3F2"/><stop offset="83.459%" stop-color="#FFF3F2"/><stop offset="85%" stop-color="#FFF3F2"/><stop offset="85.1%" stop-color="#D3DFF2"/></linearGradient></defs><g fill="none" fill-rule="evenodd" id="Page-1" stroke="none" stroke-width="1"><g fill-rule="nonzero" id="017---Reload"><g id="Icons" transform="translate(1.000000, 1.000000)"><path d="M58,29.005 C57.9846946,36.6805529 54.920601,44.0355874 49.4819139,49.4517695 C44.0432269,54.8679516 36.6755503,57.9015214 29,57.885 C28.33,57.885 27.66,57.865 27,57.805 C11.8148168,56.8242902 9.32587341e-15,44.221819 7.54951657e-15,29.005 C5.77315973e-15,13.788181 11.8148168,1.18570975 27,0.205 C27.66,0.145 28.33,0.125 29,0.125 C36.6755511,0.108475955 44.0432292,3.14204484 49.4819168,8.55822756 C54.9206045,13.9744103 57.9846973,21.3294463 58,29.005 Z" fill="#6D9AFA" id="Shape"/><ellipse cx="27" cy="29.005" fill="#CCDBF2" id="Oval" rx="27" ry="28.79999"/><path d="M55,29.005 C54.9517585,43.3249643 43.3200343,54.9030037 29,54.885 C28.16,54.885 27.33,54.845 26.5,54.765 C13.1870891,53.5408138 3.00007599,42.3740773 3.00007599,29.005 C3.00007599,15.6359227 13.1870891,4.46918623 26.5,3.245 C27.33,3.165 28.16,3.125 29,3.125 C43.3200433,3.10697426 54.9517805,14.6850265 55,29.005 Z" fill="#95B4F6" id="Shape"/><ellipse cx="26.5" cy="29.005" fill="url(#linearGradient-1)" id="Oval" rx="23.5" ry="25.76001"/><path d="M16,34.11328 C15.3098881,34.1156318 14.6680263,33.7595753 14.30469,33.17285 L11.1084,28.06006 L11.1084,28.05957 C10.7228058,27.4430782 10.7023199,26.665844 11.054903,26.0298957 C11.4074862,25.3939475 12.0775416,24.9995639 12.80469,25 L19.19531,25 C19.9224584,24.9995639 20.5925138,25.3939475 20.945097,26.0298957 C21.2976801,26.665844 21.2771942,27.4430782 20.8916,28.05957 L17.69531,33.17334 C17.3317677,33.7597862 16.6899831,34.1156143 16,34.11328 Z" fill="#DEE2F0" id="Shape"/></g><g fill="#FFFFFF" id="Layer_13" transform="translate(2.000000, 1.000000)"><path d="M30.45,57.87 C19.7910404,58.3836418 9.71612985,52.98292 4.24340019,43.8217804 C-1.22932948,34.6606408 -1.20953185,23.2294893 4.29489728,14.0873611 C9.7993264,4.94523284 19.8928835,-0.420559164 30.55,0.13 C15.145871,0.847513201 3.01788694,13.53155 2.99117961,28.9523574 C2.96447229,44.3731649 15.0484487,57.0991344 30.45,57.87 Z" id="Shape"/></g><g id="Outline"><path d="M16.0625,5.85953 C6.29898745,11.5307311 0.867466166,22.4858408 2.2641,33.69022 C4.13263345,47.7767994 16.2972757,58.20376 30.50391,57.89606 C37.3608833,57.7107337 43.919436,55.051548 48.9693,50.40921 C56.6726139,43.3491532 59.7637298,32.5642258 56.9697725,22.4954995 C54.1758152,12.4267731 45.9692316,4.77682917 35.72937,2.6958 C29.0071003,1.32575886 22.0159629,2.45039491 16.0625,5.85953 L15.0625,4.12753 C21.4401458,0.474031721 28.9302022,-0.731358155 36.13208,0.73676 C47.0891845,2.99278422 55.8621628,11.1911964 58.8540771,21.9706321 C61.8459914,32.7500677 58.5535731,44.2973225 50.32672,51.878 C44.9178338,56.8519544 37.8913296,59.6999282 30.54572,59.89561 C19.3492572,60.1674015 8.94646357,54.1363198 3.61908861,44.2847349 C-1.70828635,34.43315 -1.05990554,22.4259995 5.29736,13.20538 C7.83729697,9.49129059 11.1732473,6.39012086 15.0625,4.1275 L16.0625,5.85953 Z" fill="#FFFFFF" id="Shape"/><path d="M36.13208,0.73676 C28.9302061,-0.731382101 21.4401447,0.473997925 15.0625,4.1275 L13.32526,5.24908 L12.45941,5.8139 L11.65076,6.45898 C11.4373854,6.62180782 11.2990886,6.86414131 11.2674323,7.13067364 C11.2357761,7.39720597 11.313462,7.66519188 11.48276,7.87347 C11.8281084,8.29304826 12.4426998,8.3660806 12.87676,8.03912 L13.6303,7.4353 L14.44042,6.9093 L16.0625,5.8595 C22.0159715,2.45038834 29.0071036,1.32576379 35.72937,2.6958 C45.9520337,4.80080655 54.1367306,12.4500995 56.9274694,22.5072205 C59.7182081,32.5643416 56.6455173,43.3374339 48.9693,50.40918 C43.9194306,55.0515134 37.3608835,57.7107075 30.50391,57.89606 C20.0565751,58.1522179 10.3488086,52.5255282 5.37803968,43.3329289 C0.407270798,34.1403297 1.01401525,22.9362131 6.94843,14.33417 L7.49298,13.53705 C7.7979463,13.0954139 7.71301483,12.4936685 7.29773,12.15369 C7.08707063,11.9833131 6.8151928,11.9079179 6.54687271,11.9454677 C6.27855262,11.9830174 6.03781618,12.1301499 5.88202,12.35181 L5.29736,13.20538 C-1.03700334,22.4302272 -1.67329452,34.4250335 3.64956026,44.2682637 C8.97241503,54.1114939 19.3582578,60.1459379 30.54572,59.89563 C37.8913336,59.69994 44.9178382,56.8519553 50.32672,51.87799 C58.5806943,44.3090149 61.8915517,32.749919 58.8964148,21.9588751 C55.9012779,11.1678311 47.1063945,2.96877631 36.13208,0.73676 Z" fill="#3576FF" id="Shape"/><path d="M9.2923,10.88452 C9.55342411,10.8810313 9.80397457,10.780819 9.99548,10.60327 C10.1759952,10.4198835 10.2789839,10.1740427 10.28308,9.91675 L10.26257,9.72711 C10.2503725,9.66080525 10.2296751,9.59635034 10.20099,9.53534 C10.1819365,9.47454985 10.1540952,9.41687291 10.11835,9.36414 C10.0806939,9.30866448 10.039319,9.25580654 9.99451,9.20593 C9.80894905,9.0162161 9.55650872,8.90665934 9.2912,8.9007 C8.73332269,8.91936219 8.2821242,9.36110311 8.25165,9.91846 C8.25921258,10.0521909 8.29387043,10.1829905 8.35352,10.30292 C8.40831508,10.4229587 8.48618653,10.531047 8.5827,10.62103 C8.77861024,10.7934226 9.03135466,10.8872722 9.2923,10.88452 Z" fill="#3576FF" id="Shape"/><path d="M30,55.875 C44.2741376,55.8062083 55.7963276,44.1910968 55.7504665,29.9168671 C55.7046053,15.6426374 44.1080185,4.1018034 29.8337335,4.12473387 C15.5594486,4.14766433 4.00000027,15.7256966 4,30 C4.05059081,44.3181773 15.6817451,55.8934126 30,55.875 Z M30,6.125 C43.1695757,6.19376862 53.796362,16.9134441 53.7505153,30.0831195 C53.7046686,43.2527949 43.0035054,53.898223 29.8337702,53.8752983 C16.6640349,53.8523737 5.99999752,43.1697552 6,30 C6.04967695,16.7860145 16.7859352,6.10567421 30,6.125 Z" fill="#3576FF" id="Shape"/><path d="M12.1084,29.05957 L12.1084,29.06006 L15.30469,34.17285 C15.669714,34.7577331 16.3104217,35.1131764 16.9998641,35.113276 C17.6893065,35.1133757 18.330117,34.7581176 18.69531,34.17334 L21.8916,29.05957 C22.2771942,28.4430782 22.2976801,27.665844 21.945097,27.0298957 C21.5925138,26.3939475 20.9224584,25.9995639 20.19531,26 L18.70416,26 C20.4913608,20.9707373 25.3886121,17.7290924 30.7164082,18.0487143 C36.0442043,18.3683363 40.518785,22.1722107 41.6919067,27.3790672 C42.8650283,32.5859238 40.4540211,37.9411434 35.7780551,40.5146453 C31.1020892,43.0881472 25.2878629,42.2598328 21.5166,38.48291 C21.1261098,38.0924281 20.4930069,38.0924349 20.102525,38.482925 C19.7120431,38.8734152 19.7120499,39.5065181 20.10254,39.897 C24.5559528,44.3485555 31.4341227,45.2773884 36.90877,42.1665252 C42.3834172,39.055662 45.1060401,32.6713628 43.5612701,26.5670268 C42.0165002,20.4626908 36.5848414,16.141923 30.2894684,16.0095939 C23.9940954,15.8772649 18.385669,19.9659695 16.58575,26 L13.80469,26 C13.0775416,25.9995639 12.4074862,26.3939475 12.054903,27.0298957 C11.7023199,27.665844 11.7228058,28.4430782 12.1084,29.05957 Z M20.19629,27.99951 L17,33.11279 L13.80469,28 L20.19629,27.99951 Z" fill="#3576FF" id="Shape"/></g></g></g></svg>