<?xml version="1.0" ?><svg height="60px" version="1.1" viewBox="0 0 60 60" width="60px" xmlns="http://www.w3.org/2000/svg" xmlns:xlink="http://www.w3.org/1999/xlink"><title/><desc/><defs><linearGradient id="linearGradient-1" x1="13.6491915%" x2="86.3508085%" y1="16.8383669%" y2="83.1616331%"><stop offset="0%" stop-color="#D3DFF2"/><stop offset="17.173%" stop-color="#D3DFF2"/><stop offset="20%" stop-color="#D3DFF2"/><stop offset="20.016%" stop-color="#DAE2F2"/><stop offset="20.071%" stop-color="#EBEAF2"/><stop offset="20.138%" stop-color="#F6EFF2"/><stop offset="20.232%" stop-color="#FDF2F2"/><stop offset="20.495%" stop-color="#FFF3F2"/><stop offset="25.222%" stop-color="#FFF3F2"/><stop offset="26%" stop-color="#FFF3F2"/><stop offset="26%" stop-color="#D3DFF2"/><stop offset="39.739%" stop-color="#D3DFF2"/><stop offset="42%" stop-color="#D3DFF2"/><stop offset="42.016%" stop-color="#DAE2F2"/><stop offset="42.071%" stop-color="#EBEAF2"/><stop offset="42.138%" stop-color="#F6EFF2"/><stop offset="42.232%" stop-color="#FDF2F2"/><stop offset="42.495%" stop-color="#FFF3F2"/><stop offset="48.939%" stop-color="#FFF3F2"/><stop offset="50%" stop-color="#FFF3F2"/><stop offset="50.003%" stop-color="#F8F0F2"/><stop offset="50.014%" stop-color="#E7E8F2"/><stop offset="50.028%" stop-color="#DCE3F2"/><stop offset="50.047%" stop-color="#D5E0F2"/><stop offset="50.1%" stop-color="#D3DFF2"/><stop offset="70.622%" stop-color="#D3DFF2"/><stop offset="74%" stop-color="#D3DFF2"/><stop offset="74.1%" stop-color="#FFF3F2"/><stop offset="83.459%" stop-color="#FFF3F2"/><stop offset="85%" stop-color="#FFF3F2"/><stop offset="85.1%" stop-color="#D3DFF2"/></linearGradient></defs><g fill="none" fill-rule="evenodd" id="Page-1" stroke="none" stroke-width="1"><g fill-rule="nonzero" id="009---Shuffle"><g id="Icons" transform="translate(1.000000, 1.000000)"><path d="M58,29 C57.9846973,36.6755537 54.9206045,44.0305897 49.4819168,49.4467724 C44.0432292,54.8629552 36.6755511,57.896524 29,57.88 C28.33,57.88 27.66,57.86 27,57.8 C11.8148168,56.8192902 1.57651669e-14,44.216819 1.39888101e-14,29 C1.22124533e-14,13.783181 11.8148168,1.18070975 27,0.2 C27.66,0.14 28.33,0.12 29,0.12 C36.6755511,0.103475955 44.0432292,3.13704484 49.4819168,8.55322756 C54.9206045,13.9694103 57.9846973,21.3244463 58,29 Z" fill="#6D9AFA" id="Shape"/><ellipse cx="27" cy="29" fill="#CCDBF2" id="Oval" rx="27" ry="28.79999"/><path d="M55,29 C54.951764,43.3199666 43.3200365,54.8980092 29,54.88 C28.16,54.88 27.33,54.84 26.5,54.76 C13.1870891,53.5358138 3.00007599,42.3690773 3.00007599,29 C3.00007599,15.6309227 13.1870891,4.46418623 26.5,3.24 C27.33,3.16 28.16,3.12 29,3.12 C43.3200433,3.10197426 54.9517805,14.6800265 55,29 Z" fill="#95B4F6" id="Shape"/><ellipse cx="26.5" cy="29" fill="url(#linearGradient-1)" id="Oval" rx="23.5" ry="25.76001"/><path d="M40,38 C39.7347485,38.0001141 39.4803283,37.8947939 39.2927672,37.7072328 C39.1052061,37.5196717 38.9998859,37.2652515 39,37 L39,31 C38.9999038,30.6396543 39.1937128,30.3071322 39.5072998,30.1296154 C39.8208869,29.9520986 40.2057353,29.9570516 40.51465,30.14258 L45.51465,33.14258 C45.8157865,33.3233199 46.0000327,33.6487877 46.0000327,34 C46.0000327,34.3512123 45.8157865,34.6766801 45.51465,34.85742 L40.51465,37.85742 C40.3592297,37.9507978 40.1813143,38.000088 40,38 Z M41,32.76611 L41,35.23389 L43.05664,34 L41,32.76611 Z" fill="#A5A5A4" id="Shape"/><polyline fill="#DEE2F0" id="Shape" points="40 22 40 19 45 22 40 25 40 22"/><polyline fill="#DEE2F0" id="Shape" points="40 34 40 31 45 34 40 37 40 34"/></g><g fill="#FFFFFF" id="Layer_13" transform="translate(2.000000, 1.000000)"><path d="M30.45,57.87 C19.7910404,58.3836418 9.71612985,52.98292 4.24340019,43.8217804 C-1.22932948,34.6606408 -1.20953185,23.2294893 4.29489728,14.0873611 C9.7993264,4.94523284 19.8928835,-0.420559164 30.55,0.13 C15.145871,0.847513201 3.01788694,13.53155 2.99117961,28.9523574 C2.96447229,44.3731649 15.0484487,57.0991344 30.45,57.87 Z" id="Shape"/></g><g id="Outline"><path d="M16.0625,5.85954 C6.29891343,11.5306655 0.867335363,22.4857984 2.264,33.6902 C4.13257543,47.7768005 16.2972493,58.2037598 30.50391,57.89606 C37.3609004,57.7107301 43.9194707,55.0515459 48.96936,50.40921 C56.672623,43.3491209 59.7636954,32.5642045 56.9697285,22.4954971 C54.1757617,12.4267898 45.9692003,4.77685513 35.72936,2.6958 C29.0070925,1.32575043 22.0159542,2.45039076 16.0625,5.85954 L15.0625,4.12754 C21.4401473,0.474046114 28.9302021,-0.731343497 36.13208,0.73677 C47.0891981,2.99277486 55.8621907,11.191193 58.8540964,21.9706409 C61.846002,32.7500887 58.5535505,44.2973491 50.32666,51.878 C44.9178367,56.8519755 37.8913587,59.6999488 30.54578,59.89559 C19.3493108,60.1674162 8.94649484,54.1363524 3.6191031,44.2847683 C-1.70828865,34.4331842 -1.05991314,22.4260231 5.29736,13.2054 C7.83729048,9.49129705 11.1732417,6.39011623 15.0625,4.12749 L16.0625,5.85954 Z" fill="#FFFFFF" id="Shape"/><path d="M36.13208,0.73676 C28.930206,-0.731377442 21.4401462,0.474002318 15.0625,4.1275 L13.3252,5.24915 L12.45935,5.8139 L11.65076,6.45898 C11.4373743,6.62179609 11.2990616,6.86412262 11.2673885,7.13065473 C11.2357153,7.39718683 11.3133845,7.66517942 11.48267,7.87347 C11.8280725,8.29307406 12.44272,8.36610468 12.87683,8.03912 L13.63037,7.4353 L14.44043,6.9093 L16.0625,5.85956 C22.0159513,2.45039269 29.0070971,1.32574462 35.72937,2.6958 C45.9519986,4.80085166 54.1366559,12.4501348 56.9274016,22.5072277 C59.7181473,32.5643205 56.6455148,43.3373924 48.96937,50.40918 C43.9194851,55.0515268 37.3609143,57.7107218 30.50392,57.89606 C20.0565739,58.1522414 10.3487852,52.5255625 5.37799767,43.3329599 C0.40721012,34.1403574 1.01394389,22.9362265 6.94836,14.33417 L7.49304,13.53705 C7.79795737,13.0953908 7.71300314,12.493669 7.29773,12.15369 C7.08705957,11.9833133 6.8151733,11.9079188 6.5468446,11.9454682 C6.2785159,11.9830175 6.03776945,12.1301489 5.88196,12.35181 L5.29736,13.20538 C-1.03697866,22.4302419 -1.67324827,34.4250451 3.64961542,44.2682684 C8.97247912,54.1114917 19.3583195,60.1459314 30.54578,59.89563 C37.8913649,59.6999824 44.917845,56.8519939 50.32666,51.878 C58.5806615,44.3090437 61.891545,32.7499444 58.8964184,21.95889 C55.9012919,11.1678355 47.106403,2.9687712 36.13208,0.73676 Z" fill="#3576FF" id="Shape"/><path d="M8.58276,10.62109 C8.98824828,10.9791464 9.59915232,10.9714405 9.99548,10.60327 C10.1759952,10.4198835 10.2789839,10.1740427 10.28308,9.91675 L10.26257,9.72717 C10.2503895,9.66083411 10.2296706,9.59635468 10.20093,9.53534 C10.1818794,9.47457027 10.1540811,9.41689852 10.11841,9.36414 C10.0806962,9.3086907 10.0393031,9.25583524 9.99451,9.20593 C9.80894965,9.016251 9.55654245,8.90669928 9.29126,8.9007 C8.73338269,8.91936219 8.2821842,9.36110311 8.25171,9.91846 C8.25922232,10.0521917 8.29386136,10.1829973 8.35352,10.30292 C8.40830886,10.4229953 8.48620362,10.531108 8.58276,10.62109 Z" fill="#3576FF" id="Shape"/><path d="M30,55.875 C44.2741376,55.8062083 55.7963276,44.1910968 55.7504665,29.9168671 C55.7046053,15.6426374 44.1080185,4.1018034 29.8337335,4.12473387 C15.5594486,4.14766433 4.00000027,15.7256966 4,30 C4.05059081,44.3181773 15.6817451,55.8934126 30,55.875 Z M30,6.125 C43.1695757,6.19376862 53.796362,16.9134441 53.7505153,30.0831195 C53.7046686,43.2527949 43.0035054,53.898223 29.8337702,53.8752983 C16.6640349,53.8523737 5.99999752,43.1697552 6,30 C6.04967695,16.7860145 16.7859352,6.10567421 30,6.125 Z" fill="#3576FF" id="Shape"/><path d="M14,24 L22,24 C24.7594126,24.0048493 26.9951507,26.2405874 27,29 C26.9967599,31.7600805 24.7600805,33.9967599 22,34 L14,34 C13.4477153,34 13,34.4477153 13,35 C13,35.5522847 13.4477153,36 14,36 L22,36 C24.4611222,35.996764 26.7395413,34.7006435 28,32.58679 C29.2604587,34.7006435 31.5388778,35.996764 34,36 L40,36 L40,38 C39.9999929,38.3603077 40.193817,38.692761 40.5073709,38.870259 C40.8209249,39.0477571 41.205722,39.0428524 41.51465,38.85742 L46.51465,35.85742 C46.8157865,35.6766801 47.0000327,35.3512123 47.0000327,35 C47.0000327,34.6487877 46.8157865,34.3233199 46.51465,34.14258 L41.51465,31.14258 C41.2057353,30.9570516 40.8208869,30.9520986 40.5072998,31.1296154 C40.1937128,31.3071322 39.9999038,31.6396543 40,32 L40,34 L34,34 C31.2399195,33.9967599 29.0032401,31.7600805 29,29 C29.0044048,26.2404028 31.2404028,24.0044048 34,24 L40,24 L40,26 C39.9999038,26.3603457 40.1937128,26.6928678 40.5072998,26.8703846 C40.8208869,27.0479014 41.2057353,27.0429484 41.51465,26.85742 L46.51465,23.85742 C46.8157865,23.6766801 47.0000327,23.3512123 47.0000327,23 C47.0000327,22.6487877 46.8157865,22.3233199 46.51465,22.14258 L41.51465,19.14258 C41.2057353,18.9570516 40.8208869,18.9520986 40.5072998,19.1296154 C40.1937128,19.3071322 39.9999038,19.6396543 40,20 L40,22 L34,22 C31.5407039,22.0004329 29.2624521,23.2928229 28.00024,25.4035 C26.73704,23.2935972 24.4591384,22.0015092 22,22 L14,22 C13.4477153,22 13,22.4477153 13,23 C13,23.5522847 13.4477153,24 14,24 Z M42,33.76611 L44.05664,35 L42,36.23389 L42,33.76611 Z M42,23 L42,21.76611 L44.05664,23 L42,24.23389 L42,23 Z" fill="#3576FF" id="Shape"/></g></g></g></svg>